<svg id="visual" viewBox="0 0 900 600" width="900" height="600" xmlns="http://www.w3.org/2000/svg" xmlns:xlink="http://www.w3.org/1999/xlink" version="1.1"><path d="M0 489L16.7 483.3C33.3 477.7 66.7 466.3 100 464C133.3 461.7 166.7 468.3 200 474.7C233.3 481 266.7 487 300 498.7C333.3 510.3 366.7 527.7 400 533.7C433.3 539.7 466.7 534.3 500 526.7C533.3 519 566.7 509 600 498.7C633.3 488.3 666.7 477.7 700 482.7C733.3 487.7 766.7 508.3 800 506.3C833.3 504.3 866.7 479.7 883.3 467.3L900 455L900 601L883.3 601C866.7 601 833.3 601 800 601C766.7 601 733.3 601 700 601C666.7 601 633.3 601 600 601C566.7 601 533.3 601 500 601C466.7 601 433.3 601 400 601C366.7 601 333.3 601 300 601C266.7 601 233.3 601 200 601C166.7 601 133.3 601 100 601C66.7 601 33.3 601 16.7 601L0 601Z" fill="#065c03" stroke-linecap="round" stroke-linejoin="miter"></path></svg>